<?xml version="1.0" encoding="UTF-8"?>
<svg id="Layer_1" data-name="Layer 1" xmlns="http://www.w3.org/2000/svg" xmlns:xlink="http://www.w3.org/1999/xlink" viewBox="0 0 394.15 296.69" width="600" height="500">
  <defs>
    <style>
      .cls-1 {
        fill: url(#radial-gradient);
      }

      .cls-1, .cls-2, .cls-3, .cls-4, .cls-5, .cls-6, .cls-7, .cls-8, .cls-9, .cls-10, .cls-11, .cls-12, .cls-13, .cls-14, .cls-15, .cls-16, .cls-17, .cls-18, .cls-19, .cls-20, .cls-21, .cls-22, .cls-23, .cls-24, .cls-25, .cls-26, .cls-27, .cls-28, .cls-29, .cls-30, .cls-31, .cls-32, .cls-33, .cls-34, .cls-35, .cls-36, .cls-37, .cls-38, .cls-39, .cls-40, .cls-41, .cls-42, .cls-43, .cls-44, .cls-45, .cls-46, .cls-47, .cls-48, .cls-49, .cls-50, .cls-51, .cls-52, .cls-53, .cls-54, .cls-55, .cls-56, .cls-57, .cls-58, .cls-59 {
        stroke-width: 0px;
      }

      .cls-2 {
        fill: url(#radial-gradient-34);
      }

      .cls-3 {
        fill: url(#radial-gradient-35);
      }

      .cls-4 {
        fill: url(#radial-gradient-24);
      }

      .cls-5 {
        fill: url(#radial-gradient-28);
      }

      .cls-6 {
        fill: url(#radial-gradient-23);
      }

      .cls-7 {
        fill: url(#radial-gradient-29);
      }

      .cls-8 {
        fill: url(#radial-gradient-39);
      }

      .cls-9 {
        fill: url(#radial-gradient-36);
      }

      .cls-10 {
        fill: url(#radial-gradient-26);
      }

      .cls-11 {
        fill: url(#radial-gradient-27);
      }

      .cls-12 {
        fill: url(#radial-gradient-22);
      }

      .cls-13 {
        fill: url(#radial-gradient-37);
      }

      .cls-14 {
        fill: url(#radial-gradient-32);
      }

      .cls-15 {
        fill: url(#radial-gradient-33);
      }

      .cls-16 {
        fill: url(#radial-gradient-31);
      }

      .cls-17 {
        fill: url(#radial-gradient-38);
      }

      .cls-18 {
        fill: url(#radial-gradient-40);
      }

      .cls-19 {
        fill: url(#radial-gradient-30);
      }

      .cls-20 {
        fill: url(#radial-gradient-46);
      }

      .cls-21 {
        fill: url(#radial-gradient-45);
      }

      .cls-22 {
        fill: url(#radial-gradient-57);
      }

      .cls-23 {
        fill: url(#radial-gradient-58);
      }

      .cls-24 {
        fill: url(#radial-gradient-43);
      }

      .cls-25 {
        fill: url(#radial-gradient-44);
      }

      .cls-26 {
        fill: url(#radial-gradient-49);
      }

      .cls-27 {
        fill: url(#radial-gradient-55);
      }

      .cls-28 {
        fill: url(#radial-gradient-41);
      }

      .cls-29 {
        fill: url(#radial-gradient-42);
      }

      .cls-30 {
        fill: url(#radial-gradient-50);
      }

      .cls-31 {
        fill: url(#radial-gradient-56);
      }

      .cls-32 {
        fill: url(#radial-gradient-25);
      }

      .cls-33 {
        fill: url(#radial-gradient-54);
      }

      .cls-34 {
        fill: url(#radial-gradient-59);
      }

      .cls-35 {
        fill: url(#radial-gradient-53);
      }

      .cls-36 {
        fill: url(#radial-gradient-52);
      }

      .cls-37 {
        fill: url(#radial-gradient-51);
      }

      .cls-38 {
        fill: url(#radial-gradient-20);
      }

      .cls-39 {
        fill: url(#radial-gradient-21);
      }

      .cls-40 {
        fill: url(#radial-gradient-47);
      }

      .cls-41 {
        fill: url(#radial-gradient-48);
      }

      .cls-42 {
        fill: url(#radial-gradient-14);
      }

      .cls-43 {
        fill: url(#radial-gradient-13);
      }

      .cls-44 {
        fill: url(#radial-gradient-12);
      }

      .cls-45 {
        fill: url(#radial-gradient-15);
      }

      .cls-46 {
        fill: url(#radial-gradient-16);
      }

      .cls-47 {
        fill: url(#radial-gradient-11);
      }

      .cls-48 {
        fill: url(#radial-gradient-19);
      }

      .cls-49 {
        fill: url(#radial-gradient-18);
      }

      .cls-50 {
        fill: url(#radial-gradient-17);
      }

      .cls-51 {
        fill: url(#radial-gradient-10);
      }

      .cls-52 {
        fill: url(#radial-gradient-2);
      }

      .cls-53 {
        fill: url(#radial-gradient-3);
      }

      .cls-54 {
        fill: url(#radial-gradient-4);
      }

      .cls-55 {
        fill: url(#radial-gradient-6);
      }

      .cls-56 {
        fill: url(#radial-gradient-9);
      }

      .cls-57 {
        fill: url(#radial-gradient-8);
      }

      .cls-58 {
        fill: url(#radial-gradient-5);
      }

      .cls-59 {
        fill: url(#radial-gradient-7);
      }
    </style>
    <radialGradient id="radial-gradient" cx="210.73" cy="198.27" fx="210.73" fy="198.27" r="57.98" gradientUnits="userSpaceOnUse">
      <stop offset="0" stop-color="#d7ab42"/>
      <stop offset="1" stop-color="#bd8624"/>
    </radialGradient>
    <radialGradient id="radial-gradient-2" cx="124.94" cy="183.4" fx="124.94" fy="183.4" r=".9" xlink:href="#radial-gradient"/>
    <radialGradient id="radial-gradient-3" cx="125.92" cy="156.23" fx="125.92" fy="156.23" r=".04" xlink:href="#radial-gradient"/>
    <radialGradient id="radial-gradient-4" cx="127.13" cy="155.1" fx="127.13" fy="155.1" r=".38" xlink:href="#radial-gradient"/>
    <radialGradient id="radial-gradient-5" cx="266.52" cy="141.14" fx="266.52" fy="141.14" r=".07" xlink:href="#radial-gradient"/>
    <radialGradient id="radial-gradient-6" cx="266.84" cy="166.2" fx="266.84" fy="166.2" r=".32" xlink:href="#radial-gradient"/>
    <radialGradient id="radial-gradient-7" cx="124.94" cy="183.4" fx="124.94" fy="183.4" r=".9" xlink:href="#radial-gradient"/>
    <radialGradient id="radial-gradient-8" cx="167.71" cy="180.53" fx="167.71" fy="180.53" r="3.27" xlink:href="#radial-gradient"/>
    <radialGradient id="radial-gradient-9" cx="186.82" cy="165.69" fx="186.82" fy="165.69" r=".02" xlink:href="#radial-gradient"/>
    <radialGradient id="radial-gradient-10" cx="187.42" cy="165.37" fx="187.42" fy="165.37" r=".23" xlink:href="#radial-gradient"/>
    <radialGradient id="radial-gradient-11" cx="188.21" cy="164.94" fx="188.21" fy="164.94" r=".52" xlink:href="#radial-gradient"/>
    <radialGradient id="radial-gradient-12" cx="190.78" cy="161.88" fx="190.78" fy="161.88" r=".26" xlink:href="#radial-gradient"/>
    <radialGradient id="radial-gradient-13" cx="191.3" cy="161.44" fx="191.3" fy="161.44" r=".29" xlink:href="#radial-gradient"/>
    <radialGradient id="radial-gradient-14" cx="191.73" cy="160.97" fx="191.73" fy="160.97" r=".2" xlink:href="#radial-gradient"/>
    <radialGradient id="radial-gradient-15" cx="125.92" cy="156.23" fx="125.92" fy="156.23" r=".04" xlink:href="#radial-gradient"/>
    <radialGradient id="radial-gradient-16" cx="125.92" cy="156.35" fx="125.92" fy="156.35" r=".02" xlink:href="#radial-gradient"/>
    <radialGradient id="radial-gradient-17" cx="127.13" cy="155.1" fx="127.13" fy="155.1" r=".38" xlink:href="#radial-gradient"/>
    <radialGradient id="radial-gradient-18" cx="204.83" cy="101.95" fx="204.83" fy="101.95" r=".52" xlink:href="#radial-gradient"/>
    <radialGradient id="radial-gradient-19" cx="208" cy="99.63" fx="208" fy="99.63" r="1.29" xlink:href="#radial-gradient"/>
    <radialGradient id="radial-gradient-20" cx="266.52" cy="141.14" fx="266.52" fy="141.14" r=".07" xlink:href="#radial-gradient"/>
    <radialGradient id="radial-gradient-21" cx="267.51" cy="141.4" fx="267.51" fy="141.4" r=".08" xlink:href="#radial-gradient"/>
    <radialGradient id="radial-gradient-22" cx="208" cy="99.63" fx="208" fy="99.63" r="1.29" xlink:href="#radial-gradient"/>
    <radialGradient id="radial-gradient-23" cx="215.01" cy="94.67" fx="215.01" fy="94.67" r="1.28" xlink:href="#radial-gradient"/>
    <radialGradient id="radial-gradient-24" cx="218.34" cy="92.37" fx="218.34" fy="92.37" r=".62" xlink:href="#radial-gradient"/>
    <radialGradient id="radial-gradient-25" cx="211.39" cy="97.29" fx="211.39" fy="97.29" r=".82" xlink:href="#radial-gradient"/>
    <radialGradient id="radial-gradient-26" cx="204.83" cy="101.95" fx="204.83" fy="101.95" r=".52" xlink:href="#radial-gradient"/>
    <radialGradient id="radial-gradient-27" cx="224.99" cy="209.45" fx="224.99" fy="209.45" r=".52" xlink:href="#radial-gradient"/>
    <radialGradient id="radial-gradient-28" cx="266.84" cy="166.2" fx="266.84" fy="166.2" r=".32" xlink:href="#radial-gradient"/>
    <radialGradient id="radial-gradient-29" cx="186.82" cy="165.69" fx="186.82" fy="165.69" r=".02" xlink:href="#radial-gradient"/>
    <radialGradient id="radial-gradient-30" cx="187.47" cy="161.12" fx="187.47" fy="161.12" r=".24" xlink:href="#radial-gradient"/>
    <radialGradient id="radial-gradient-31" cx="187.42" cy="165.37" fx="187.42" fy="165.37" r=".23" xlink:href="#radial-gradient"/>
    <radialGradient id="radial-gradient-32" cx="188.21" cy="164.94" fx="188.21" fy="164.94" r=".52" xlink:href="#radial-gradient"/>
    <radialGradient id="radial-gradient-33" cx="194.09" cy="165.42" fx="194.09" fy="165.42" r=".68" xlink:href="#radial-gradient"/>
    <radialGradient id="radial-gradient-34" cx="187.47" cy="161.12" fx="187.47" fy="161.12" r=".24" xlink:href="#radial-gradient"/>
    <radialGradient id="radial-gradient-35" cx="190.78" cy="161.88" fx="190.78" fy="161.88" r=".26" xlink:href="#radial-gradient"/>
    <radialGradient id="radial-gradient-36" cx="191.3" cy="161.44" fx="191.3" fy="161.44" r=".29" xlink:href="#radial-gradient"/>
    <radialGradient id="radial-gradient-37" cx="191.73" cy="160.97" fx="191.73" fy="160.97" r=".2" xlink:href="#radial-gradient"/>
    <radialGradient id="radial-gradient-38" cx="224.99" cy="209.45" fx="224.99" fy="209.45" r=".52" xlink:href="#radial-gradient"/>
    <radialGradient id="radial-gradient-39" cx="138.29" cy="196.71" fx="138.29" fy="196.71" r=".25" xlink:href="#radial-gradient"/>
    <radialGradient id="radial-gradient-40" cx="266.84" cy="166.2" fx="266.84" fy="166.2" r=".32" xlink:href="#radial-gradient"/>
    <radialGradient id="radial-gradient-41" cx="195.26" cy="162.62" fx="195.26" fy="162.62" r="52.7" xlink:href="#radial-gradient"/>
    <radialGradient id="radial-gradient-42" cx="197.07" cy="122.81" fx="197.07" fy="122.81" r="106.19" xlink:href="#radial-gradient"/>
    <radialGradient id="radial-gradient-43" cx="184.6" cy="91.86" fx="184.6" fy="91.86" r="6.27" xlink:href="#radial-gradient"/>
    <radialGradient id="radial-gradient-44" cx="154.35" cy="81.99" fx="154.35" fy="81.99" r="5.98" xlink:href="#radial-gradient"/>
    <radialGradient id="radial-gradient-45" cx="177.29" cy="56.74" fx="177.29" fy="56.74" r="11.6" xlink:href="#radial-gradient"/>
    <radialGradient id="radial-gradient-46" cx="282.65" cy="234.82" fx="282.65" fy="234.82" r=".17" xlink:href="#radial-gradient"/>
    <radialGradient id="radial-gradient-47" cx="13.87" cy="280.48" fx="13.87" fy="280.48" r="14.76" xlink:href="#radial-gradient"/>
    <radialGradient id="radial-gradient-48" cx="46.98" cy="280.9" fx="46.98" fy="280.9" r="16.05" xlink:href="#radial-gradient"/>
    <radialGradient id="radial-gradient-49" cx="79.68" cy="280.5" fx="79.68" fy="280.5" r="14.01" xlink:href="#radial-gradient"/>
    <radialGradient id="radial-gradient-50" cx="117.9" cy="280.9" fx="117.9" fy="280.9" r="13.79" xlink:href="#radial-gradient"/>
    <radialGradient id="radial-gradient-51" cx="148.27" cy="281.2" fx="148.27" fy="281.2" r="15.9" xlink:href="#radial-gradient"/>
    <radialGradient id="radial-gradient-52" cx="181.81" cy="280.9" fx="181.81" fy="280.9" r="16.08" xlink:href="#radial-gradient"/>
    <radialGradient id="radial-gradient-53" cx="211.6" cy="280.5" fx="211.6" fy="280.5" r="14.01" xlink:href="#radial-gradient"/>
    <radialGradient id="radial-gradient-54" cx="250.24" cy="280.48" fx="250.24" fy="280.48" r="14.76" xlink:href="#radial-gradient"/>
    <radialGradient id="radial-gradient-55" cx="282.74" cy="280.9" fx="282.74" fy="280.9" r="15.67" xlink:href="#radial-gradient"/>
    <radialGradient id="radial-gradient-56" cx="312.11" cy="280.46" fx="312.11" fy="280.46" r="16.21" xlink:href="#radial-gradient"/>
    <radialGradient id="radial-gradient-57" cx="336.01" cy="280.9" fx="336.01" fy="280.9" r="11.71" xlink:href="#radial-gradient"/>
    <radialGradient id="radial-gradient-58" cx="358.39" cy="280.9" fx="358.39" fy="280.9" r="13.79" xlink:href="#radial-gradient"/>
    <radialGradient id="radial-gradient-59" cx="383.69" cy="280.9" fx="383.69" fy="280.9" r="13.39" xlink:href="#radial-gradient"/>
  </defs>
  <g>
    <path class="cls-1" d="M282.63,234.58c-.01.16-.03.31-.05.47h.13c-.02-.16-.06-.32-.08-.47ZM282.71,235.05c.05.31.05.63-.14.99h.93v-.99h-.79ZM227.88,210.49c-.09-.14-.11-.04-.11.04-.01.11,0,.23,0,.36.04.02.08.05.13.08v-.32c0-.05.03-.11-.02-.16ZM225.84,209.5s.02-.13-.06-.07c-.05.04-.08.09-.12.14.03.02.06.04.09.06,0-.03.01-.05.03-.08.24.04.47.04.64-.14-.18.09-.38.05-.58.09ZM224.98,209.16h-.01s-.04-.01-.04-.01c-.19.02-.39.01-.62.01.21.22.45.29.74.27-.09.12-.15.21-.22.3.17.01.31-.03.46-.07.03-.01.09-.02.09-.02.1.24.17,0,.22-.03.02-.01.04-.02.06-.04-.23-.14-.45-.28-.68-.41ZM192,160.59c-.1-.2-.13-.06-.13.05v.09c.05-.04.09-.08.14-.12t-.01-.02ZM191.86,160.74c-.09.09-.19.18-.28.26.09.07.13.22.28.21,0-.17,0-.33.01-.48h-.01ZM191.51,160.96s-.01.08-.01.12c.03-.02.05-.05.08-.08-.02-.02-.04-.03-.07-.04ZM191.09,161.48c.12.09.18.21.28.32.09-.23.11-.48.13-.72-.14.13-.28.26-.41.4ZM191.04,161.45s-.02.08-.04.11c.03-.03.05-.05.09-.08-.01-.01-.03-.02-.05-.03ZM190.56,161.99c.02.06.04.12.06.19.17-.19.3-.38.37-.61-.15.14-.29.28-.43.42ZM190.47,161.68c-.22.39-.5.61-.91.62.17-.23.3-.45.31-.77-.38.3-.77.45-1.24.41.18-.2.38-.35.46-.68-.39.28-.78.39-1.22.32.02-.12.17-.12.18-.26-.16-.03-.31-.05-.47-.1-.14.05-.29.05-.43.06-.1.01-.23-.01-.13.19-.13-.06-.22-.11-.32-.14-.05-.01-.16-.15-.15.05,0,.07-.07.03-.1.01-.11-.04-.21-.1-.31-.14-.05-.02-.13-.14-.16.03-.01.06-.06,0-.1-.01-.14-.06-.24-.18-.39-.24.42.61,1.03.87,1.76.93-.09.16-.28.1-.41.17.32.39.75.32,1.21.3-.27.27-.59.29-.9.33.19.27.7.41,1.34.35-.22.27-.5.29-.81.31.12.13.25.19.42.26-.21.05-.37.02-.52-.03-.04-.01-.14-.09-.07.05.02.05-.02.06-.06.05-.05-.02-.1-.02-.14-.05-.23-.16-.45-.15-.64.1.22.19.49.22.79.21-.07.13-.22.13-.33.2.29.2.6.33.92.42.48-.5.92-1.06,1.41-1.55.36-.37.73-.73,1.1-1.09-.02-.1-.05-.2-.09-.31ZM188.88,164.8c-.28-.05-.56-.1-.83-.17-.16.17-.33.34-.51.49.02.02.04.03.06.03.32.11.64.12,1,.02-.16-.09-.33-.1-.46-.22.27-.03.51-.02.74-.15ZM187.5,165.34s-.07-.07-.09-.12c0,.01,0,.01,0,.01-.06.06-.12.1-.18.15-.03.02-.06.04-.09.07.17.07.36.08.57.06-.09-.08-.15-.12-.2-.17ZM187.14,161.02c.15.09.29.16.44.2.07-.02.15-.06.22-.12-.24-.02-.45-.04-.66-.08ZM187.41,165.12s-.02.07,0,.1c.04-.02.07-.05.12-.1-.05-.02-.09-.04-.12,0ZM186.72,165.1c-.05.23.05.4.11.57.1-.08.2-.15.3-.22-.16-.07-.29-.18-.41-.35ZM186.83,165.67h-.01s-.02.02-.03.03c.01,0,.03.01.05.01,0-.01-.01-.03-.01-.04ZM186.19,165.07c-.08.19-.13.31-.18.43-.18-.13-.22-.34-.33-.5-.02.01-.03.01-.04.02-.04.06-.08.17-.16.16-.09-.02-.09-.13-.11-.21-.03-.12-.06-.24-.09-.37-.07.06-.12.11-.19.18-.04-.22-.01-.42-.1-.6-.09.81-.05,1.62.03,2.43.01.13.03.26.05.38.57-.43,1.15-.86,1.72-1.29-.32-.09-.54-.23-.6-.63ZM138.12,196.58c-.06.05-.11.1-.17.16.13.02.27.05.4.07.08.01.16.04.27-.01-.17-.08-.34-.15-.5-.22Z"/>
    <path class="cls-52" d="M125.97,182.98c-.56.48-1.16.84-2.07,1.16.67-.78,1.19-1.2,1.79-1.49.09.11.19.22.28.33Z"/>
    <path class="cls-53" d="M125.92,156.18s-.01.07-.01.1v-.1h.01Z"/>
    <path class="cls-54" d="M127.53,154.74h0c-.27.25-.53.48-.8.72.26-.24.53-.48.8-.72Z"/>
    <path class="cls-58" d="M266.61,141.19c-.06-.03-.12-.06-.18-.09h0c.06.02.12.05.18.09Z"/>
    <path class="cls-55" d="M267.23,166.42c-.26-.14-.53-.29-.79-.44h0c.26.14.53.29.79.44Z"/>
    <path class="cls-59" d="M125.97,182.98c-.56.48-1.16.84-2.07,1.16.67-.78,1.19-1.2,1.79-1.49.09.11.19.22.28.33Z"/>
    <path class="cls-57" d="M172.19,180.59c-2.48,1.23-5.14,1.46-7.96.23-.24-.1-.47-.26-1.01-.57,1.91-.08,3.49.07,5.05-.29.56-.14,1.1-.31,1.62-.55.79.34,1.55.73,2.3,1.18Z"/>
    <path class="cls-56" d="M186.84,165.71s-.04-.01-.05-.01c.01-.01.02-.01.03-.02h.01s.01.02.01.03Z"/>
    <path class="cls-51" d="M187.7,165.51c-.21.02-.4.01-.57-.06.03-.03.06-.05.09-.07.06-.05.12-.09.18-.15,0,0,0,0,0-.01.02.05.06.09.09.12.05.05.11.09.2.17Z"/>
    <path class="cls-47" d="M188.14,164.95c.13.12.3.13.46.22-.36.1-.68.09-1-.02-.02,0-.04-.01-.06-.03.18-.15.35-.32.51-.49.27.07.55.12.83.17-.23.13-.47.12-.74.15Z"/>
    <path class="cls-44" d="M190.99,161.57c-.07.23-.2.42-.37.61-.02-.07-.04-.13-.06-.19.14-.14.28-.28.43-.42Z"/>
    <path class="cls-43" d="M191.5,161.08c-.02.24-.04.49-.13.72-.1-.11-.16-.23-.28-.32.13-.14.27-.27.41-.4Z"/>
    <path class="cls-42" d="M191.87,160.73c-.01.15-.01.31-.01.48-.15.01-.19-.14-.28-.21.09-.08.19-.17.28-.26h.01Z"/>
    <path class="cls-45" d="M125.92,156.18s-.01.07-.01.1v-.1h.01Z"/>
    <path class="cls-46" d="M125.92,156.35v.02s-.01-.03-.01-.05c0,.01,0,.02.01.03Z"/>
    <path class="cls-50" d="M127.53,154.74h0c-.27.25-.53.48-.8.72.26-.24.53-.48.8-.72Z"/>
    <path class="cls-49" d="M205.34,101.82c-.15.35-.38.61-.7.65-.22.03-.4-.13-.27-.44.14-.35.37-.61.72-.61.19,0,.26.16.25.4Z"/>
    <path class="cls-48" d="M209.47,98.55c-.77,1.16-1.75,1.88-2.94,2.15.79-1.14,1.91-1.54,2.94-2.15Z"/>
    <path class="cls-38" d="M266.61,141.19c-.06-.03-.12-.06-.18-.09h0c.06.02.12.05.18.09Z"/>
    <path class="cls-39" d="M267.53,141.29v.07c-.01.07-.02.11-.05.15.02-.05.04-.12.05-.22Z"/>
    <path class="cls-12" d="M209.47,98.55c-.77,1.16-1.75,1.88-2.94,2.15.79-1.14,1.91-1.54,2.94-2.15Z"/>
    <path class="cls-6" d="M216.47,93.59c-.78,1.11-1.78,1.78-2.92,2.16.78-1.1,1.83-1.63,2.92-2.16Z"/>
    <path class="cls-4" d="M219.05,91.87c-.41.63-.69,1.04-1.2,1.01-.17-.02-.27-.27-.2-.41.29-.56.72-.66,1.4-.6Z"/>
    <path class="cls-32" d="M212.31,96.58c-.37.75-.89,1.15-1.85,1.41.66-.94,1.2-1.3,1.85-1.41Z"/>
    <path class="cls-10" d="M205.34,101.82c-.15.35-.38.61-.7.65-.22.03-.4-.13-.27-.44.14-.35.37-.61.72-.61.19,0,.26.16.25.4Z"/>
    <path class="cls-11" d="M225.66,209.57s-.04.03-.06.04c-.05.03-.12.27-.22.03,0,0-.06.01-.09.02-.15.04-.29.08-.46.07.07-.09.13-.18.22-.3-.29.02-.53-.05-.74-.27.23,0,.43.01.62-.01h.05c.23.14.45.28.68.42Z"/>
    <path class="cls-5" d="M266.44,165.97h0c.26.16.53.31.79.45-.26-.15-.53-.3-.79-.45Z"/>
    <path class="cls-7" d="M186.84,165.71s-.04-.01-.05-.01c.01-.01.02-.01.03-.02h.01s.01.02.01.03Z"/>
    <path class="cls-19" d="M187.8,161.1c-.07.06-.15.1-.22.12-.15-.04-.29-.11-.44-.2.21.04.42.06.66.08Z"/>
    <path class="cls-16" d="M187.7,165.51c-.21.02-.4.01-.57-.06.03-.03.06-.05.09-.07.06-.05.12-.09.18-.15,0,0,0,0,0-.01.02.05.06.09.09.12.05.05.11.09.2.17Z"/>
    <path class="cls-14" d="M188.14,164.95c.13.12.3.13.46.22-.36.1-.68.09-1-.02-.02,0-.04-.01-.06-.03.18-.15.35-.32.51-.49.27.07.55.12.83.17-.23.13-.47.12-.74.15Z"/>
    <path class="cls-15" d="M194.99,165.7c-.14.07-.23.03-.33.01-.49-.11-.99-.21-1.48-.32.17-.09.32-.2.49-.3.44.16.88.38,1.32.61Z"/>
    <path class="cls-2" d="M187.8,161.1c-.07.06-.15.1-.22.12-.15-.04-.29-.11-.44-.2.21.04.42.06.66.08Z"/>
    <path class="cls-3" d="M190.99,161.57c-.07.23-.2.42-.37.61-.02-.07-.04-.13-.06-.19.14-.14.28-.28.43-.42Z"/>
    <path class="cls-9" d="M191.5,161.08c-.02.24-.04.49-.13.72-.1-.11-.16-.23-.28-.32.13-.14.27-.27.41-.4Z"/>
    <path class="cls-13" d="M191.87,160.73c-.01.15-.01.31-.01.48-.15.01-.19-.14-.28-.21.09-.08.19-.17.28-.26h.01Z"/>
    <path class="cls-17" d="M225.66,209.57s-.04.03-.06.04c-.05.03-.12.27-.22.03,0,0-.06.01-.09.02-.15.04-.29.08-.46.07.07-.09.13-.18.22-.3-.29.02-.53-.05-.74-.27.23,0,.43.01.62-.01h.05c.23.14.45.28.68.42Z"/>
    <path class="cls-8" d="M138.62,196.8c-.11.05-.19.02-.27.01-.13-.02-.27-.05-.4-.07.06-.06.11-.11.17-.16.16.07.33.14.5.22Z"/>
    <path class="cls-18" d="M266.44,165.97h0c.26.16.53.31.79.45-.26-.15-.53-.3-.79-.45Z"/>
    <path class="cls-28" d="M266.43,141.09h0c.06.04.12.07.18.1-.06-.04-.12-.07-.18-.1ZM126.73,155.46c.27-.24.53-.47.8-.71h0c-.27.23-.54.47-.8.71ZM125.69,182.65c-.6.29-1.12.71-1.79,1.49.91-.32,1.51-.68,2.07-1.16-.09-.11-.19-.22-.28-.33ZM125.91,156.18v.1s0-.06.01-.1h-.01Z"/>
    <path class="cls-29" d="M283.4,101.74c-.01-5.97.15-11.94.11-17.92-.02-2.99-.09-5.98-.24-8.96-.05-.99-.09-1.99-.13-2.99-.08-1.9-.16-3.81-.36-5.7-.53-4.86-1.56-9.67-3.14-14.31-1.53-4.51-3.57-8.84-6.06-12.92-2.52-4.12-5.48-7.97-8.79-11.52C249.71,11.23,230.79,3.25,209.35.79c-21.05-2.43-41.22.58-59.97,10.91-19.33,10.65-32.43,26.53-37.35,48.83-.49,2.22-.65,4.52-.97,6.79-.13,3.72-.39,7.44-.39,11.16-.03,51.34-.02,102.67-.01,154.01v2.56h-.03v10.56h172.87v-9.57h-.93c.19-.36.19-.68.14-.99h-.13c.02-.16.04-.31.05-.47.02.15.06.31.08.47h.79v-2.56c-.07-32.47-.06-64.94-.08-97.42l-.02-33.33ZM266.44,162.14c.25.31.51.63.76.95-.26-.32-.51-.64-.77-.95-.37-.47-.75-.94-1.12-1.4-.38-.47-.8-.93-1.26-1.28-3.35-2.64-6.62-5.46-10.1-7.8-3.11-2.09-5.86-4.55-8.07-7.95-.69-1.05-1.43-2.13-2.46-2.62-3.33-1.6-6-4.4-8.79-7.03-2.01-1.88-4.33-2.32-6.75-1.3-2.85,1.21-5.31,3.19-7.46,5.8-1.57,1.92-3.37,3.45-5.41,4.46-1.26.62-2.2,1.59-2.81,3.08-.68,1.69-1.71,2.96-3.04,3.88-2.38,1.65-4.73,3.22-7.39,4.19-2.19.8-4.21,1.97-6.12,3.39h-.02c-.2-.05-.39-.17-.55-.4.16-.09.38-.01.5-.23-.9-.08-1.63-.45-2.14-1.3.17.09.3.26.47.34.04.02.11.1.13.01.03-.23.12-.07.19-.04.12.06.24.14.37.2.04.02.12.08.12-.01-.01-.28.12-.1.19-.07.12.04.23.11.39.19-.12-.28.03-.25.16-.26.26-.02.53-.03.79-.26-.34-.03-.63-.05-.9-.14-.01-.11.14-.1.1-.21-.15-.02-.29-.03-.44-.05-.04,0-.13,0-.11-.08.07-.21-.05-.18-.15-.18-.47-.04-.83-.31-1.18-.69.2.04.36.07.52.1.05.01.14-.01.14-.01,0-.33.19-.09.27-.09.11-.01.33.09.34.06.11-.32.35-.1.52-.17.13-.06.29-.04.45-.13-.12-.03-.21-.05-.3-.07q-.28-.07-.46-.35s-.04-.03-.06-.03c-.33.03-.59-.23-.91-.26-.25-.03-.45-.24-.62-.48.16-.02.29.12.44.07-.04-.08-.08-.16-.12-.25.22.03.39.19.6.17.02-.09-.11-.11-.06-.21.2-.03.43.02.6-.17-.18-.05-.35-.1-.52-.14-.16-.02-.17-.11-.08-.25-.36-.06-.7-.08-.97-.36-.02-.05-.04-.1-.06-.11.04.04.11.02.17.03,0-.08-.06-.21.09-.14.16.07.32.15.49.15-.02-.12-.15-.08-.19-.19.14-.01.28-.03.41-.04-.13-.13-.27-.19-.41-.26-.03-.02-.13-.02-.07-.1.13-.17-.01-.15-.08-.16-.26-.05-.5-.15-.67-.41,0-.04-.03-.08-.02-.13.04.04.1.01.13.06.13.07.27.14.47.11-.11-.07-.17-.1-.26-.16.12-.03.2-.06.28-.08-.38-.04-.51-.38-.69-.68.12-.02.24.03.37-.03-.24-.18-.46-.37-.58-.66-.1-.24-.17-.48-.26-.71-.03-.07-.04-.18-.12-.18s-.09.1-.12.17c-.2.54-.4,1.07-.9,1.42.15.01.24.02.34.03-.15.33-.36.56-.67.61.02.15.25.02.21.18-.05.16.02.11.08.11.18-.01.34-.11.54-.29-.15.37-.37.5-.63.59-.08.03-.33-.11-.24.21,0,.02-.06.06-.1.07-.1.03-.21.06-.32.09.07.13.22.07.28.18-.02.12-.16.09-.2.2.2.03.37-.04.52-.1.04.07-.06.1,0,.17.14-.01.26-.09.39-.17-.23.44-.6.51-1,.53-.01.09.1.07.08.16-.1.04-.32.02-.3.09.09.27-.1.17-.18.2-.1.05-.21.05-.35.08.2.13.38.19.57.18.05,0,.16-.03.16.04-.01.29.14.11.22.1.1-.02.2-.07.3-.11.03.13-.11.15-.1.26.12.05.22-.05.34-.04-.25.35-.63.3-.99.4.07.07.12.11.18.16-.15.04-.38.08-.38.1.01.34-.24.11-.31.24-.09.29-.36.13-.54.25.16.17.35.18.55.21.09.01.29-.18.27.14-.01.04.07.02.11,0,.11-.07.22-.14.34-.21.02-.02.04-.01.06-.02.04.08-.03.17.03.24.15-.07.3-.15.51-.25-.37.53-.85.55-1.37.62.14.09.23.14.32.2-.22.2-.5.17-.73.26.02.14.17.1.2.22-.28.18-.59.23-.9.28.05.11.14.09.19.14.21.2.56-.16.72.22,0,.01.07-.01.1-.03.1-.05.2-.11.3-.17.02-.01.04-.02.06-.02.04.09-.03.18.03.26.27-.11.47-.34.71-.62-.05.25-.02.33.15.22.12-.07.23-.16.35-.23-.47.85-1.21,1.2-2.05,1.38.18.19.39.19.59.29-.47.34-.97.39-1.51.36.22.38.56.46.9.64-.18.05-.31.09-.43.12-.04.02-.12.02-.1.07.09.28-.12.18-.2.18-.24.02-.48.01-.75.01.25.31.54.4.89.37-.1.17-.18.29-.27.42.21.01.38-.04.56-.1.04-.01.11-.03.11-.02.13.33.21,0,.28-.04.08-.05.12-.19.21-.26.09-.08.06.05.07.1.24-.05.49.01.7-.12-.2.25-.48.25-.77.19-.08.16.02.25.11.3.2.12.14.21.01.33-.13.11-.27.13-.42.12-.11-.02-.22-.07-.33-.03-.01.18.15.23.19.39-.13.08-.27.18-.41.25-.45.22-.93.32-1.47.37-.02,0-.05,0-.07-.01-.01-.08.12-.08.09-.16-.13-.01-.25-.01-.37-.03-.03,0-.1,0-.08-.06.05-.15-.05-.12-.13-.13-.38-.03-.68-.22-.97-.5.16.03.3.06.43.08.04,0,.12-.01.12-.01,0-.24.15-.06.21-.07.1,0,.27.07.28.05.1-.23.3-.08.43-.12.11-.04.24-.03.37-.1-.1-.02-.17-.03-.25-.05q-.23-.05-.37-.25s-.03-.02-.05-.02c-.27.02-.49-.16-.75-.19-.2-.02-.37-.17-.51-.34.13-.02.24.08.36.05-.03-.06-.06-.12-.1-.19.18.03.33.14.5.13.01-.07-.1-.08-.05-.15.16-.03.35.01.49-.13-.15-.03-.29-.07-.43-.09-.13-.02-.14-.08-.06-.18-.3-.05-.58-.06-.8-.26-.01-.04-.03-.08-.05-.09.03.03.09.02.14.03,0-.06-.05-.15.07-.1.14.05.27.1.41.1-.02-.08-.12-.05-.16-.13.12-.01.23-.02.34-.03-.11-.1-.23-.14-.34-.19-.03-.01-.11-.01-.06-.07.11-.12-.01-.11-.06-.11-.22-.04-.41-.11-.55-.3,0-.03-.03-.06-.02-.09.03.03.08,0,.11.04.11.05.21.1.38.08-.09-.05-.14-.08-.21-.12.1-.02.16-.04.23-.06-.31-.03-.42-.27-.57-.49.1,0,.2.03.31-.02-.21-.13-.38-.26-.48-.47-.08-.17-.14-.34-.22-.51-.02-.06-.03-.13-.09-.13-.07,0-.08.07-.1.12-.16.39-.33.77-.74,1.02.12.01.2.02.28.02-.13.24-.3.4-.55.44.01.11.2.02.17.14-.04.11.02.07.06.07.15,0,.28-.08.45-.21-.13.27-.31.36-.52.43-.07.02-.27-.08-.19.15,0,.01-.06.04-.09.05-.08.02-.17.04-.26.06.05.1.18.05.23.14-.02.08-.13.06-.17.14.17.02.3-.03.43-.07.03.05-.05.07-.01.12.12-.01.22-.07.32-.12-.19.31-.49.37-.82.38-.01.06.09.05.07.11-.09.04-.25.02-.25.07.08.19-.09.12-.14.14-.09.04-.18.04-.29.06.16.1.3.13.46.13.05,0,.13-.02.13.03,0,.21.12.08.18.07.09-.01.17-.05.25-.08.03.09-.09.11-.08.18.1.04.18-.03.28-.02-.21.25-.52.21-.81.29.06.05.09.08.14.12-.12.02-.31.05-.31.06.01.25-.2.08-.26.18-.07.21-.29.09-.44.18.14.12.29.13.45.15.08.01.24-.13.22.1,0,.03.07.01.1,0,.09-.05.18-.1.27-.15.02-.01.04-.01.06-.01.03.05-.03.11.02.17.12-.05.25-.11.42-.19-.3.39-.7.4-1.13.46.12.06.19.1.27.14-.19.14-.41.12-.61.18.02.11.14.08.17.16-.23.13-.48.17-.74.21.04.07.12.06.16.09.17.15.45-.11.59.17,0,0,.05,0,.08-.03l.24-.12s.04-.01.06-.02c.03.07-.03.14.02.19.23-.07.39-.24.59-.44-.04.17-.02.23.12.15.1-.05.19-.11.29-.16-.39.61-1,.86-1.69,1,.14.13.32.13.48.2-.38.25-.79.29-1.24.26.18.27.46.33.74.46-.15.04-.25.07-.35.09-.03.01-.1.02-.08.05.07.2-.1.13-.17.13-.19.01-.39,0-.62,0,.21.23.45.29.74.27-.09.12-.15.21-.22.31.17,0,.31-.04.46-.08.03,0,.09-.02.09-.01.11.24.17,0,.22-.03.07-.04.11-.14.18-.18.08-.06.05.03.06.06.2-.04.4.01.58-.08-.17.18-.4.18-.64.14-.07.11.02.17.09.21.17.09.11.15.01.24-.11.08-.22.09-.35.08-.09,0-.17-.05-.27,0-.01.12.13.16.16.27-.11.06-.22.13-.34.18-.37.16-.76.23-1.21.27.26.15.51.18.76.22-.01.11-.14.1-.15.19.36.05.68-.03,1-.23-.06.24-.23.34-.37.49.39.03.71-.08,1.02-.29-.01.22-.12.39-.26.55.34-.01.57-.17.75-.45.05.14.08.24.13.36.16-.16.27-.32.34-.53.12.06.18.17.27.26.09-.2.09-.4.12-.61.12.02.14.19.29.18,0-.14,0-.27,0-.41,0-.07.02-.17.11-.03.05.04.02.1.02.15.01.37.01.74.01,1.1-.02-.03.01-.09-.03-.13-.05.26-.03.51-.05.77-.02.3-.03.61-.16.89-.07.13-.14.2-.3.18-.17-.02-.34-.02-.51-.02-.19.03-.38,0-.57.01-.09.01-.18-.01-.25.07.25.07.52.08.78.11.23.03.47.07.7.11-3.4,2.61-6.74,5.31-9.96,8.26-1.69-1.11-3.51-2-5.47-2.66-3.06-1.03-5.99-.59-8.51,1.3-3.52,2.62-6.89,5.43-11.1,7.02-1.3.49-2.24,1.57-3.1,2.63-2,2.44-4.35,4.39-6.97,6.06h-.01c-.61-.09-1.12-.37-1.49-.9.15.06.25.19.39.24.04.02.09.08.1.01.03-.16.11-.05.16-.03.1.04.2.1.31.15.03.01.1.06.1-.01-.01-.2.1-.07.15-.05.1.03.19.08.32.14-.1-.2.03-.18.13-.19.22-.02.44-.02.65-.19-.27-.02-.51-.03-.73-.1-.02-.08.11-.07.08-.15-.12-.01-.24-.02-.36-.03-.04-.01-.11-.01-.09-.06.05-.15-.05-.13-.13-.14-.38-.02-.68-.22-.97-.49.17.03.3.05.43.07.04.01.12,0,.12,0,0-.24.15-.07.21-.07.1-.01.28.06.28.05.1-.24.3-.08.44-.13.1-.04.23-.03.36-.09-.1-.02-.17-.04-.25-.05q-.23-.05-.37-.26s-.03-.02-.05-.02c-.27.03-.49-.16-.75-.19-.2-.02-.37-.16-.51-.34.13-.02.24.09.36.05-.03-.06-.06-.11-.1-.18.19.02.33.13.5.12.01-.07-.1-.08-.05-.15.17-.02.35.01.49-.12-.15-.04-.29-.08-.43-.1-.12-.02-.14-.08-.06-.18-.3-.04-.58-.06-.8-.26-.01-.04-.03-.07-.05-.08.03.03.09.01.14.02,0-.05-.05-.15.07-.1.14.05.27.11.41.11-.02-.09-.12-.06-.16-.14.12-.01.23-.02.34-.03-.11-.09-.23-.14-.34-.18-.03-.02-.11-.02-.06-.08.11-.12-.01-.1-.06-.11-.22-.04-.41-.11-.55-.29,0-.04-.02-.06-.02-.1.03.03.08.01.11.05.11.04.22.09.38.07-.09-.05-.14-.07-.21-.11.1-.03.16-.04.23-.06-.31-.03-.42-.28-.57-.49.11-.02.2.02.31-.03-.2-.12-.38-.26-.48-.47-.08-.17-.14-.34-.22-.51-.02-.05-.03-.13-.09-.13-.07,0-.08.08-.1.13-.16.38-.33.77-.74,1.02.12,0,.2.01.28.02-.13.24-.3.4-.55.44.01.11.21.01.17.13-.04.11.02.08.06.08.16-.01.29-.09.45-.21-.13.27-.31.35-.52.42-.06.02-.27-.07-.19.15,0,.01-.06.04-.09.05-.08.03-.17.05-.26.07.05.09.18.05.23.13-.02.08-.13.06-.16.14.16.03.3-.03.42-.07.03.05-.05.07,0,.12.12-.01.22-.06.32-.12-.19.31-.49.37-.82.38-.01.07.09.06.07.11-.08.04-.25.02-.25.07.08.2-.08.13-.14.15-.09.03-.18.03-.29.05.16.1.3.14.46.14.05-.01.14-.03.13.02,0,.21.12.08.18.07.09-.01.17-.05.25-.07.03.09-.09.1-.08.18.1.04.18-.03.28-.03-.21.26-.52.22-.81.29.06.05.09.08.14.12-.12.03-.31.05-.31.07.01.25-.2.08-.26.17-.07.21-.29.1-.44.19.14.11.29.13.45.14.08.01.24-.13.22.11,0,.03.07.01.1-.01.09-.05.18-.1.28-.15,0-.01.03-.01.05-.01.03.06-.03.12.02.17.12-.05.25-.1.42-.18-.3.38-.7.4-1.13.45.12.06.19.1.27.14-.19.15-.41.12-.61.19.02.1.14.07.17.16-.23.13-.48.16-.74.2.04.08.12.06.16.1.17.14.45-.12.59.16,0,0,.05-.01.08-.02.08-.04.16-.09.25-.13.01,0,.03-.01.05-.01.03.06-.03.13.02.19.23-.08.39-.25.59-.45-.04.18-.02.24.12.16.1-.05.19-.12.29-.16-.39.61-1,.86-1.69.99.15.13.32.13.49.2-.39.25-.8.29-1.25.27.18.27.46.33.74.45-.15.04-.25.07-.35.1-.03,0-.09.01-.08.04.07.21-.1.13-.17.13-.19.02-.39.01-.61.01.2.22.44.29.73.27-.09.12-.15.21-.22.3.17.01.31-.03.46-.07.03-.01.09-.02.09-.02.11.24.17,0,.23-.03.07-.03.1-.13.17-.18.08-.06.05.03.06.07.2-.04.41.01.58-.09-.17.18-.4.18-.64.14-.07.11.02.18.09.22.17.08.11.15,0,.23-.11.09-.22.1-.34.09-.09-.01-.18-.05-.28-.02-.01.12.13.16.16.28-.11.06-.22.13-.34.18-.37.16-.76.23-1.2.26.25.16.5.19.75.23,0,.1-.13.1-.15.19.05.01.11.01.16.01-1.83,1.07-3.62,2.2-5.4,3.33.01-13.82.02-27.63.02-41.45.99-.6,1.97-1.2,2.98-1.74,1.91-1.03,3.26-2.85,4.29-4.95,2.12-4.33,4.52-8.32,7.61-11.65.72-.78,1.4-1.63,2.33-2.73-.75,2.92-.89,5.51-1.2,8.08.6-1.36,1.16-2.74,1.52-4.19.73-2.91,1.89-5.53,3.57-7.71,2.12-2.75,3.88-5.77,5.18-9.2.02-.04.13-.02.2-.02.63,1.3.8,2.72.61,4.55.67-1.22,1.06-2.11.81-3.32-.16-.74-.15-1.54-.12-2.31.12-2.53,1.19-4.1,2.95-3.82,2.31.38,3.88-.81,5.29-2.79,1.08-1.51,2.59-1.99,4.14-2.71-.48,2.25-2.35,2.99-3,5.3,1.11-1.49,2.81-1.42,3.46-2.98.89-2.12,2.44-2.98,4-3.97.72-.45,1.24-.38,1.89.2,1.17,1.02,2.13,2.47,3.55,2.99,3.1,1.14,5.25,3.52,6.42,7.28.24.75.6,1.52,1.25,1.85,1.15.57,2.32,1.05,3.49,1.58.07-.51-.42-.48-.45-1.01,3.18,1.32,5.56,4.31,8.65,5.65-1.82-1.83-3.64-3.66-5.47-5.49.04-.07.07-.14.1-.21,4.94,3.47,9.88,6.94,14.82,10.41.06-.13.13-.27.19-.4-2.13-2.38-4.21-4.81-6.78-6.5-2.86-1.87-5.69-3.8-8.5-5.75-.56-.39-1.22-.64-1.59-1.38-.61-1.13-.8-2.65-1.9-3.33-.31-.19-.6-.39-.89-.61,4.17-3.17,8.35-6.33,12.53-9.49.23-.08.46-.16.62-.27-.13.14-.27.35-.34.63-1.51,1.66-3.03,3.33-4.55,4.99,3.08-1.47,5.47-4.64,8.53-6.08.07.11.13.22.19.33-.16.26-.33.51-.46.7q4.19-2.09,6.46-7.22c.12-.28.27-.54.36-.82.33-.99.89-1.57,1.63-1.97,2.47-1.33,4.88-2.84,6.91-5.25.26-.31.61-.8.93-.6,1.49.92,3.38,1.34,4.19,3.38.96,2.42,2.73,2.97,4.29,4.43-.71-2.27-2.56-3.12-3.01-5.61,1.52.89,3.05,1.29,4.09,2.88,1.53,2.34,3.27,3.79,5.74,3.21,1.13-.27,1.89.52,2.37,2.04.5,1.55.59,3.1.35,4.66-.22,1.39.14,2.43.81,3.79-.15-2.04-.1-3.71.83-5.29,1.23,3.73,2.87,6.87,4.91,9.7,1.92,2.66,3.33,5.77,4.12,9.39.35,1.62.97,3.14,1.47,4.71-.32-3.01-.38-6.02-1.02-8.94,2.16,2.85,4.6,5.28,6.42,8.53,1.26,2.26,2.48,4.54,3.56,6.97,1.73,3.9,4.59,5.78,7.55,7.44h0c.06.03.12.06.18.1-.06-.03-.12-.06-.18-.09,0,7.02,0,14.02.01,21.04ZM192.01,160.61c-.05.04-.09.08-.14.12-.01.15-.01.31-.01.48-.15.01-.19-.14-.28-.21-.03.03-.05.06-.08.08-.02.24-.04.49-.13.72-.1-.11-.16-.23-.28-.32-.04.03-.06.05-.09.08.02-.03.03-.07.04-.11.02.01.04.02.05.03.13-.14.27-.27.41-.4,0-.04.01-.08.01-.12.03.01.05.02.07.04.09-.08.19-.17.28-.26h.01v-.1c0-.11.03-.25.13-.05t.01.02ZM188.88,164.8c-.23.13-.47.12-.74.15.13.12.3.13.46.22-.36.1-.68.09-1-.02-.02,0-.04-.01-.06-.03.18-.15.35-.32.51-.49-.32-.09-.63-.22-.92-.42.11-.07.26-.07.33-.2-.3.01-.57-.02-.79-.21.19-.25.41-.26.64-.1.04.03.09.03.14.05.04.01.08,0,.06-.05-.07-.14.03-.06.07-.05.15.05.31.08.52.03-.17-.07-.3-.13-.42-.26.31-.02.59-.04.81-.31-.64.06-1.15-.08-1.34-.35.31-.04.63-.06.9-.33-.46.02-.89.09-1.21-.3.13-.07.32-.01.41-.17-.73-.06-1.34-.32-1.76-.93.15.06.25.18.39.24.04.01.09.07.1.01.03-.17.11-.05.16-.03.1.04.2.1.31.14.03.02.1.06.1-.01-.01-.2.1-.06.15-.05.1.03.19.08.32.14-.1-.2.03-.18.13-.19.14-.01.29-.01.43-.06-.15-.04-.29-.11-.44-.2.21.04.42.06.66.08-.07.06-.15.1-.22.12.16.05.31.07.47.1-.01.14-.16.14-.18.26.44.07.83-.04,1.22-.32-.08.33-.28.48-.46.68.47.04.86-.11,1.24-.41-.01.32-.14.54-.31.77.41-.01.69-.23.91-.62.04.11.07.21.09.31.14-.14.28-.28.43-.42-.07.23-.2.42-.37.61-.02-.07-.04-.13-.06-.19-.37.36-.74.72-1.1,1.09-.49.49-.93,1.05-1.41,1.55.27.07.55.12.83.17ZM186.84,165.71s-.04-.01-.05-.01c-.57.43-1.15.86-1.72,1.29-.02-.12-.04-.25-.05-.38-.08-.81-.12-1.62-.03-2.43.09.18.06.38.1.6.07-.07.12-.12.19-.18.03.13.06.25.09.37.02.08.02.19.11.21.08,0,.12-.1.16-.16.01-.01.02-.01.04-.02.11.16.15.37.33.5.05-.12.1-.24.18-.43.06.4.28.54.6.63.01-.01.02-.01.03-.02h.01c-.06-.18-.16-.35-.11-.58.12.17.25.28.41.35.03-.03.06-.05.09-.07.06-.05.12-.09.18-.15,0,0,0,0,0-.01-.02-.03-.02-.06,0-.1.03-.04.07-.02.12,0-.05.05-.08.08-.12.1.02.05.06.09.09.12.05.05.11.09.2.17-.21.02-.4.01-.57-.06-.1.07-.2.14-.3.22,0,.01.01.03.01.04ZM127.54,154.73v-1.4c.6-.11,1.2-.17,1.83-.23-.61.55-1.22,1.08-1.83,1.63ZM204.37,102.03c.14-.35.37-.61.72-.61.19,0,.26.16.25.4-.15.35-.38.61-.7.65-.22.03-.4-.13-.27-.44ZM206.53,100.7c.79-1.14,1.91-1.54,2.94-2.15-.77,1.16-1.75,1.88-2.94,2.15ZM264.36,137.75c.73.24,1.42.38,2.07.55h.01c-.01.57-.01,1.14-.01,1.71h0c-.67-.63-1.38-1.29-2.06-2.26ZM151.47,30.7c16.17-11.33,34.37-14.78,53.68-13.04,14.5,1.32,27.92,5.59,39.62,14.69,14.38,11.19,21.85,25.74,21.78,44.54-.07,19.11-.11,38.23-.11,57.34h-.01c-7.12-5.62-13.16-13.11-18-22.66-3.23-6.38-7.26-11.79-11.49-16.98-.85-1.05-1.76-1.56-2.91-.79-.7.47-1.38.25-2.02-.36-1.1-1.06-2.15-2.19-3.05-3.55-.32-.48-.67-.85-1.15-1.07-1.73-.81-3.17-2.57-5.1-2.69-.11-.01-.22-.14-.31-.24-1.85-2.19-3.64-1.77-5.65-.17-1.64,1.3-2.83,3.21-4.29,4.71-2.4,2.46-4.99,4.57-7.61,6.57-.42.32-.86.54-1.03,1.24-.32,1.41-1.1,2.33-2.01,3.03-1.86,1.42-3.75,2.77-5.63,4.16-1.64.42-2.91,1.85-4.36,2.8-2.22,1.45-4.05,3.62-5.81,5.91-.45-.36-.89-.71-1.35-1.04-1.03-.74-1.91-1.78-3.09-2.18-1.11-.8-2.03-1.83-2.92-3.01-1.42-1.87-3.3-3.02-5.28-3.82-.2-.09-.49-.06-.68.05-1.67.96-3.4,1.76-5.09,2.62-1.88.96-3.81,2.24-5.18,4.38-.4.62-1.05.98-1.58,1.47-.48.45-1.05.61-1.54.28-1.36-.92-2.37-.23-3.34.91-3.38,3.99-6.82,7.94-9.5,12.71-2.92,5.2-5.86,10.36-9.78,14.5-2.94,3.11-5.95,6.03-9.14,8.52,0-24.26-.03-48.52-.12-72.78-.08-19.96,8.37-35.06,24.05-46.05ZM125.95,156.49s-.02-.02-.03-.04c0,0,0,0,0,.01s.01.02.02.03ZM125.91,156.18h.01s-.01.07-.01.1v-.1ZM123.9,184.14c.67-.78,1.19-1.2,1.79-1.49.09.11.19.22.28.33-.56.48-1.16.84-2.07,1.16ZM127.53,154.74h0c-.27.25-.53.48-.8.72.26-.24.53-.48.8-.72ZM266.47,232.49H127.5c0-10.59.01-21.18.02-31.77h0c1.66-1.17,3.69-1.67,5.57-2.41-1.37,1.66-3.73,1.75-5.42,3.4,4.12-.68,7.47-2.45,10.28-4.97.06-.06.11-.11.17-.16.37-.33.72-.68,1.07-1.04,1.99-2.04,4.26-3.6,6.53-5.28,3.24-2.39,6.67-3.89,10.65-4.35,1.1-.13,2.18-.48,3.35-1.16-2.04-.1-3.92.61-5.74-.55,2.25-1.53,4.31-3.23,6.38-4.9,1.64-1.33,3.9-1.6,6.05-1.08,1.21.3,2.36.69,3.48,1.19.79.34,1.55.73,2.3,1.18,1.34.77,2.63,1.69,3.88,2.75-2.54.6-4.74.2-6.84-1.05,1.37,2.24,3.46,2.93,5.86,2.83,2.64-.11,5.04.65,7.41,1.63.77.31,1.29.79,1.66,1.53.51,1.04,1.09,2.05,1.68,3.05,1.25,2.12,2.71,4.02,5.43,4.59-.01-.55-.65-.82-.99-1.77,5.07,2.93,11.24,2.66,15.2,7.42-2.82-.94-5.53-1.84-8.61-2.86,1,1.17,1.94,1.78,3,2.14,6.74,2.31,13.09,5.44,19.37,8.73.9.47,1.89,1.01,2.48,1.78,2.38,3.07,5.98,4.66,8.75,7.23.31.06.44-.06.38-.37-.76-1.66-2.66-2.36-3.46-4.01,2.46,1.71,5.03,3.26,7.5,4.95,4.21,2.88,8.85,4.08,13.93,2.33.31-.1.59-.26,1.28-.56-1.56-.06-2.94-.01-4.25-.08h-.01c-.64-.29-1.27-.54-1.93-.71-.29-.07-.39-.2-.44-.48-.12-.68-.23-1.35-.28-2.03-.14-1.76-.19-3.53.03-5.31.2.4.13.85.2,1.32.16-.14.28-.25.42-.38.07.29.13.55.18.8.04.18.05.43.24.46.16.03.25-.2.35-.33.02-.02.05-.02.09-.04.23.36.32.8.69,1.11.12-.27.23-.52.41-.93.13.91.67,1.23,1.39,1.42-.09-.42-.34-.78-.23-1.33.53.79,1.22,1.01,2.12.93-.19-.17-.32-.27-.43-.38-.13-.13-.31-.3-.19-.47.1-.15.29.01.42.06.7.25,1.4.29,2.18.1-.34-.22-.72-.24-.99-.52.58-.03,1.11-.02,1.61-.29-1.33-.23-2.62-.53-3.78-1.35.25-.16.56-.16.73-.43-.66,0-1.25-.06-1.71-.49.42-.54.89-.55,1.4-.19.08.05.2.07.3.11.09.03.17.01.12-.1-.13-.31.08-.14.16-.11.33.11.67.19,1.14.1-.38-.17-.66-.31-.92-.59.68-.04,1.31-.07,1.79-.65-1.41.1-2.51-.22-2.91-.81.68-.08,1.38-.1,1.99-.68-1,.02-1.96.15-2.63-.71.29-.15.69-.01.9-.36-1.6-.15-2.9-.77-3.79-2.11.31.14.53.41.84.55.07.02.19.16.22.02.07-.36.23-.11.34-.06.23.1.44.23.66.33.07.03.22.13.22-.01,0-.44.23-.15.34-.11.21.07.41.19.7.32-.22-.44.06-.4.29-.4.47-.03.95-.02,1.42-.39-.6-.05-1.11-.09-1.6-.25-.02-.17.25-.15.19-.33-.27-.02-.53-.04-.79-.08-.08-.01-.24-.02-.19-.13.12-.33-.1-.28-.28-.3-.83-.07-1.46-.51-2.09-1.13.36.07.65.13.93.18.09.02.26,0,.26,0,.01-.52.33-.13.48-.14.21-.01.59.15.6.12.22-.5.65-.16.95-.26.24-.08.52-.04.8-.18-.2-.05-.37-.09-.53-.13-.5-.11-.5-.12-.8-.57-.02-.02-.08-.04-.12-.04-.59.03-1.05-.38-1.62-.45-.44-.05-.8-.38-1.09-.77.29-.03.51.2.79.13-.07-.13-.14-.26-.22-.41.4.06.71.32,1.08.3.03-.15-.21-.18-.1-.33.36-.05.76.04,1.08-.26-.33-.08-.63-.17-.93-.22-.28-.05-.31-.19-.14-.4-.64-.1-1.25-.16-1.72-.6-.03-.08-.07-.16-.1-.19.05.07.18.04.3.06,0-.12-.11-.32.16-.21.29.12.57.24.88.25-.03-.19-.27-.12-.35-.3.26-.02.51-.04.75-.06-.24-.21-.49-.3-.73-.42-.06-.02-.24-.03-.12-.16.24-.26-.02-.22-.14-.25-.47-.08-.89-.26-1.18-.66,0-.07-.05-.13-.04-.21.07.06.18.02.23.1.24.1.47.22.83.18-.18-.1-.3-.16-.46-.25.22-.05.37-.09.52-.12-.68-.08-.91-.62-1.22-1.1.22-.02.42.07.66-.03-.43-.29-.82-.6-1.02-1.06-.16-.37-.29-.75-.44-1.12-.05-.11-.07-.28-.21-.29-.14,0-.17.16-.22.27-.37.84-.75,1.67-1.66,2.19.27.03.43.04.62.06-.29.52-.67.86-1.23.94.03.24.45.04.36.29-.08.24.05.17.14.17.34-.01.62-.16.98-.44-.28.59-.68.77-1.14.91-.15.04-.59-.18-.43.32,0,.01-.12.09-.19.1-.19.05-.38.09-.57.13.11.21.38.12.49.3-.05.18-.28.14-.36.31.35.05.65-.06.93-.14.07.11-.12.15-.03.27.26-.02.48-.14.71-.25-.43.67-1.1.78-1.81.78-.03.15.18.13.14.25-.18.08-.57.03-.54.14.15.43-.2.27-.32.31-.19.07-.39.07-.64.11.35.22.66.31,1.01.31.1,0,.29-.05.29.06-.03.46.25.18.38.17.19-.02.37-.1.56-.16.04.2-.21.23-.2.39.21.09.4-.05.62-.04-.47.54-1.15.44-1.79.6.13.1.2.17.31.26-.26.05-.68.1-.68.13.01.54-.44.17-.57.37-.17.45-.65.19-.98.38.3.26.64.29.99.34.16.02.52-.27.47.23,0,.07.14.04.2,0,.21-.1.41-.21.62-.32.03-.01.08-.01.11-.02.07.13-.07.26.05.38.27-.11.54-.22.93-.38-.69.83-1.55.83-2.49.93.25.15.41.23.57.32-.4.31-.9.25-1.33.38.04.23.31.17.36.36-.5.27-1.06.33-1.62.41.09.16.25.13.34.21.36.33,1-.23,1.28.38,0,.01.12-.01.18-.04.18-.08.36-.18.54-.26.03-.02.07-.02.11-.03.06.14-.07.29.05.42.49-.17.85-.52,1.29-.95-.09.38-.04.51.27.34.21-.11.41-.24.63-.34-.87,1.32-2.21,1.84-3.73,2.09.31.3.7.31,1.05.47-.85.52-1.75.59-2.72.52.38.59.99.73,1.6,1.03-.33.08-.55.13-.78.18-.07.02-.21.03-.18.1.15.45-.23.27-.37.28-.42.02-.85-.01-1.34-.02.44.5.95.65,1.59.62-.2.26-.34.45-.5.66.37.02.69-.07,1-.14.07-.02.21-.05.21-.03.22.52.36,0,.49-.06.15-.07.23-.29.38-.39.18-.12.12.07.14.15.43-.08.88.03,1.26-.16-.38.38-.87.38-1.39.27-.16.25.03.39.19.48.35.19.23.33,0,.51-.22.18-.47.2-.74.17-.2-.03-.39-.11-.6-.05-.03.27.26.37.34.61-.25.13-.49.27-.75.38-.81.33-1.67.47-2.65.52.56.35,1.1.43,1.64.53-.02.22-.3.21-.33.41.78.12,1.49-.04,2.19-.46-.14.51-.52.73-.83,1.05.84.08,1.54-.15,2.22-.6-.02.5-.26.84-.58,1.19.75.01,1.25-.33,1.66-.94.1.3.17.53.26.79.35-.34.61-.69.77-1.13.26.13.39.37.58.56.2-.42.21-.87.28-1.31.26.05.29.42.62.4.01-.31,0-.6.03-.89.01-.16.06-.38.23-.07.13.1.06.23.06.34-.01.76-.03,1.52-.05,2.26,0-.05-.01-.1-.06-.14-.11.55-.09,1.1-.14,1.66-.06.66-.08,1.33-.39,1.94-.12.22-.26.37-.51.38h-.02c-.47-.23-.9-.5-1.33-.83-3.48-2.65-7.08-5.11-10.76-7.45-.02-.44-.01-.87.04-1.3.09.18.06.39.1.6.07-.06.12-.12.19-.18.03.14.06.25.09.37.02.08.02.2.11.21.07.01.11-.1.16-.16.01-.01.02-.01.04-.02.11.17.15.37.33.51.05-.13.1-.25.17-.43.07.41.32.56.66.64-.05-.2-.17-.36-.12-.62.25.36.57.46.98.41-.09-.07-.15-.12-.2-.17-.06-.06-.14-.13-.09-.21.04-.07.13,0,.19.02.32.11.64.12,1,.03-.16-.1-.33-.1-.46-.23.27-.02.51-.02.74-.15-.61-.09-1.21-.22-1.75-.58.11-.08.26-.08.33-.21-.3.01-.57-.01-.79-.2.19-.26.4-.26.64-.11.04.03.09.04.14.05.04.01.08.01.06-.04-.07-.14.03-.07.07-.06.15.05.31.08.52.04-.17-.08-.3-.14-.42-.27.31-.02.59-.04.81-.31-.64.06-1.15-.08-1.34-.34.31-.04.63-.06.9-.33-.46.02-.9.08-1.21-.3.13-.08.32-.02.41-.18-.73-.05-1.34-.32-1.76-.93.14.06.25.19.39.24.04.02.09.08.1.01.03-.16.11-.05.16-.03.1.04.2.1.31.15.03.01.1.06.1-.01-.01-.2.1-.07.15-.05.1.03.19.08.32.14-.1-.21.03-.18.13-.19.22-.02.44-.02.65-.19-.27-.02-.51-.03-.74-.1-.01-.08.12-.07.09-.15-.13-.01-.25-.02-.37-.03-.03-.01-.1-.01-.08-.06.05-.15-.05-.13-.13-.14-.38-.02-.68-.22-.97-.49.16.03.3.05.43.07.04.01.12,0,.12,0,0-.24.15-.07.21-.07.1-.01.27.06.28.05.09-.24.29-.08.43-.13.11-.04.24-.03.37-.09-.1-.02-.17-.04-.25-.05q-.23-.05-.37-.26s-.04-.02-.05-.02c-.27.02-.49-.16-.75-.19-.2-.02-.37-.16-.51-.34.13-.02.24.09.36.05-.03-.06-.06-.11-.1-.18.18.02.33.13.5.12.01-.07-.1-.08-.05-.15.16-.02.35.01.49-.12-.15-.04-.29-.08-.43-.1-.13-.02-.14-.08-.06-.18-.3-.04-.58-.06-.8-.26-.01-.04-.03-.07-.05-.08.03.03.09.01.14.02,0-.05-.05-.15.07-.1.14.05.26.11.41.11-.02-.09-.12-.06-.16-.14.12-.01.23-.02.34-.03-.11-.09-.23-.14-.34-.19-.03-.01-.11-.01-.06-.07.11-.12-.01-.1-.06-.11-.22-.04-.41-.11-.55-.29,0-.04-.03-.06-.02-.1.03.03.08.01.11.05.11.04.21.09.38.07-.09-.05-.14-.07-.21-.11.1-.03.16-.04.23-.06-.31-.03-.42-.28-.57-.49.1-.02.2.02.31-.03-.21-.12-.39-.26-.48-.47-.08-.17-.15-.34-.22-.51-.02-.05-.03-.13-.09-.13-.07,0-.08.08-.1.13-.17.38-.33.77-.74,1.02.12,0,.2.01.28.02-.13.24-.3.4-.55.44.01.11.2.01.17.13-.04.11.02.08.06.07.15,0,.28-.08.45-.2-.13.27-.31.35-.52.42-.07.02-.27-.07-.19.15,0,.01-.06.04-.09.05-.08.03-.17.05-.26.07.05.09.18.05.23.13-.02.08-.13.06-.17.14.17.03.3-.03.43-.07.03.05-.05.07-.01.12.12-.01.22-.06.32-.12-.19.31-.49.37-.82.38,0,.07.09.06.07.11-.09.04-.27.02-.25.07.08.2-.09.13-.14.15-.09.03-.18.03-.29.05.16.1.3.14.46.14.05-.01.13-.03.13.02,0,.21.12.08.18.07.09,0,.17-.05.25-.07.03.09-.09.1-.08.18.1.04.18-.03.28-.03-.21.26-.52.22-.81.29.06.05.09.08.14.12-.12.03-.31.05-.31.07.01.25-.2.08-.26.17-.07.21-.29.1-.44.19.14.11.29.12.45.14.08.01.24-.13.22.11,0,.03.07.01.1-.01.09-.05.18-.1.27-.15.02-.01.04-.01.06-.01.03.06-.03.12.02.17.12-.05.25-.1.42-.18-.3.38-.7.4-1.13.45.12.06.19.1.27.14-.19.15-.41.12-.61.19.02.1.14.07.17.16-.23.13-.48.16-.74.2.04.08.12.06.16.1.17.14.45-.12.59.16,0,0,.05-.01.08-.02.08-.04.16-.09.24-.13.02-.01.04-.01.06-.01.03.06-.03.13.02.19.23-.08.39-.25.58-.45-.03.18-.01.24.13.16.1-.05.19-.12.29-.16-.39.61-1,.86-1.69.99.14.13.32.13.48.2-.38.25-.79.29-1.24.27.18.27.46.32.74.45-.15.04-.25.07-.35.1-.03,0-.1.01-.08.04.06.18-.06.15-.13.13h.01c.23.14.45.28.68.42.04-.05.07-.1.12-.14.08-.06.05.03.06.07.2-.04.4,0,.58-.09-.17.18-.4.18-.64.14-.02.03-.03.05-.03.08-.03-.02-.06-.04-.09-.06-.02.02-.04.03-.06.04-.05.03-.12.27-.22.03,0,0-.06.01-.09.02-.15.04-.29.08-.46.07.07-.09.13-.18.22-.3-.29.02-.53-.05-.74-.27.23,0,.43.01.62-.01h.04c-1.71-1.05-3.43-2.08-5.16-3.1-1.06-.63-1.88-1.54-2.83-2.3-4.7-3.76-9.65-7.22-15.52-8.91-3.36-.97-6.33-2.54-9.32-4.18-1.68-.93-2.98-2.2-3.85-3.89-.76-1.49-1.94-2.45-3.53-3.08-2.58-1.01-4.85-2.54-6.84-4.46-.56-.54-1.13-1.05-1.72-1.52,1.67-1.41,3.37-2.73,5.02-4.17-.64,1.65-2.14,2.34-2.74,4.01-.05.31.05.42.29.37,2.2-2.57,5.06-4.16,6.94-7.23.47-.77,1.25-1.31,1.97-1.78,1.82-1.2,3.64-2.39,5.49-3.51,0,0,0,0,0-.01.17-.09.32-.2.49-.3,3.05-1.83,6.15-3.52,9.36-4.91.84-.36,1.58-.97,2.38-2.14-2.44,1.02-4.59,1.92-6.83,2.85,3.14-4.76,8.03-4.49,12.05-7.41-.27.95-.78,1.22-.78,1.77,2.15-.57,3.31-2.47,4.3-4.6.47-1,.93-2.01,1.33-3.05.29-.74.7-1.21,1.32-1.52,1.88-.98,3.78-1.74,5.87-1.63,1.9.1,3.56-.6,4.64-2.84-1.66,1.26-3.4,1.66-5.42,1.06,2.34-2.49,4.81-4.26,7.66-5.12,1.7-.52,3.49-.25,4.79,1.07,1.65,1.68,3.28,3.37,5.06,4.91-1.44,1.16-2.93.45-4.55.54.93.69,1.79,1.04,2.65,1.17,3.16.46,5.88,1.96,8.45,4.35,1.8,1.68,3.6,3.23,5.17,5.28,2.43,3.16,5.38,5.39,9.14,6.17-1.34-1.65-3.21-1.74-4.3-3.4,1.95.97,4.1,1.51,5.53,3.67,1.4,2.13,3.1,3.57,4.94,4.66h.01c.26.15.53.3.79.45-.26-.14-.53-.29-.79-.44,0,22.18.03,44.33.03,66.51ZM227.77,210.89c0-.13-.01-.25,0-.36,0-.08.02-.18.11-.04.05.05.02.11.02.16v.32c-.05-.03-.09-.06-.13-.08ZM267.53,141.36c-.01.07-.02.11-.05.15.02-.05.04-.12.05-.22v.07Z"/>
    <path class="cls-24" d="M193.03,94.61c-1.24.01-2.26-.31-2.93-.94-1.72-1.63-3.26-1.7-4.9.04-.88.93-1.54.63-1.93-.48-.7-1.98-1.79-3.11-4.13-2.33-.83.27-1.85.18-2.98-.38,2.02-.48,3.83-.88,5.62-1.35,1.23-.33,1.33.77,1.68,1.36.71,1.2,1.5,1.7,2.67.72,1.29-1.08,2.2-.75,3.27.41.99,1.06,2.25,1.85,3.63,2.95Z"/>
    <path class="cls-25" d="M161.94,85.69c-1,0-1.57-.41-1.97-.87-1.65-1.93-3.36-3.1-5.84-1.24-.85.64-1.16-.19-1.23-.83-.3-2.48-1.5-3.7-4.13-3.37-.65.08-1.36-.37-2.02-1.09,1.78,0,3.56.03,5.35-.01,1.33-.02,1.23,1.15,1.52,1.88.45,1.14,1.08,1.64,2.21,1.06,1.55-.8,2.51-.38,3.37,1.12.69,1.18,1.74,2.15,2.74,3.35Z"/>
    <path class="cls-21" d="M188.75,58.65c-.1.79-.42,1.18-1.21,1.19-.61.02-1.23.12-1.83.06-1.01-.11-1.91.01-2.61.83-.16.19-.45.4-.66.39-2.09-.08-3.23,1.86-5.06,2.56,2.87.15,5.74.3,8.85.46-2.42,2.79-5.29,4.14-8.71,4.21-6,.13-10.94-4.19-11.77-10.12-.13-.9-.01-1.27,1-1.21,1.34.08,2.7.02,4.05.02,0-.08.01-.16.01-.24-1.38-.18-2.75-.38-4.13-.55-.73-.1-1.03-.39-.91-1.21.31-2.02.4-2.17,2.4-2.54,1.55-.29,3.13-.2,4.7-.23.59-.01,1.2.08,1.76-.19,0-.36-.27-.34-.45-.33-2.06.09-3.62-1.32-5.48-1.85-1.1-.31-.13-.83.1-1.08,3.78-4.18,10.37-4.95,15.02-1.67,3.96,2.8,5.54,6.69,4.93,11.5Z"/>
    <path class="cls-20" d="M282.71,235.05h-.13c.02-.16.04-.31.05-.47.02.15.06.31.08.47Z"/>
  </g>
  <g>
    <path class="cls-40" d="M27.74,272.44h-.44v-.52c0-2.65-1.68-4.36-4.34-4.43h-5.83v25.46c.05,1.5,1.27,2.69,2.78,2.69h.55v.43s-13.18,0-13.18,0v-.43h.56c1.49,0,2.71-1.18,2.78-2.66v-25.49h-5.83c-2.66.07-4.35,1.78-4.34,4.43v.51h-.44s0-7.56,0-7.56c.8.34,3.28.77,5.14.79h17.45c1.87-.02,4.34-.45,5.14-.79v7.56Z"/>
    <path class="cls-41" d="M50.68,296.08v-.43h.56c1.51,0,2.73-1.2,2.78-2.7v-11.08h-14.07v11.04c.03,1.51,1.26,2.73,2.78,2.73h.55v.43s-13.17,0-13.17,0v-.43h.56c1.52,0,2.75-1.22,2.78-2.73v-24.05c-.04-1.5-1.27-2.73-2.78-2.73h-.55v-.43s13.17,0,13.17,0v.43h-.56c-1.51,0-2.74,1.23-2.78,2.73v11.18h14.07v-11.18c-.06-1.49-1.28-2.73-2.78-2.73h-.55v-.43s13.17,0,13.17,0v.43h-.56c-1.52,0-2.75,1.22-2.78,2.73v24.05c.03,1.51,1.26,2.73,2.78,2.73h.55v.43s-13.17,0-13.17,0Z"/>
    <path class="cls-26" d="M89.91,296.08h-22.46v-.43h.56c1.52,0,2.75-1.22,2.78-2.73v-24.19c-.1-1.45-1.3-2.59-2.77-2.59h-.55v-.43s16.63,0,16.63,0c1.87-.02,4.37-.45,5.18-.79v7.59h-.44v-.52c0-2.61-1.64-4.32-4.24-4.43h-7.3v12.62h5.75c2.13-.04,3.69-1.6,3.68-3.72v-.38h.42s0,10.02,0,10.02h-.42v-.38c0-2.1-1.52-3.65-3.62-3.72h-5.81v12.21h5.7c4.33,0,7.15-2.69,8.49-7h.43l-2,8.85Z"/>
    <path class="cls-30" d="M128.13,296.08h-22.46v-.43h.56c1.52,0,2.75-1.22,2.78-2.73v-24.05c-.03-1.51-1.26-2.73-2.78-2.73h-.55v-.43s13.17,0,13.17,0v.43h-.56c-1.52,0-2.75,1.22-2.78,2.73v25.35h5.7c4.33,0,7.15-2.69,8.49-7h.43l-2,8.85Z"/>
    <path class="cls-37" d="M164.58,265.71v.43h-.71c-1.22,0-2.22.85-2.29,2.05v16.89c0,7.13-4.68,11.6-12.48,11.6-9.29,0-14.14-4.45-14.14-11.53v-16.87c-.02-1.25-1.04-2.15-2.29-2.15h-.71v-.43h12.5v.43h-.71c-1.23,0-2.23.87-2.29,2.08v16.56c0,6.17,3.23,10.01,8.42,10.01s8.6-3.62,8.62-9.45v-17.11c-.05-1.22-1.06-2.09-2.29-2.09h-.71v-.43h9.08Z"/>
    <path class="cls-36" d="M198.73,296.08h-14.79v-.43s.54,0,.54,0c1.18,0,2.22-1.43,1.49-2.66l-6.07-9.43-6.37,9.4c-.81,1.23.34,2.69,1.52,2.69h.55v.43s-10.71,0-10.71,0v-.43h.61c1.77,0,3.3-1.15,4.29-2.45l8.55-12.08-8.01-12.43c-.91-1.34-2.57-2.55-4.39-2.55h-.62v-.43h14.73v.43s-.54,0-.54,0c-1.18,0-2.21,1.44-1.51,2.67l5.41,8.36,5.31-8.34c.74-1.23-.32-2.69-1.51-2.69h-.55v-.43s10.65,0,10.65,0v.43s-.6,0-.6,0c-1.81,0-3.39,1.2-4.33,2.53l-7.39,10.97,8.73,13.48c.91,1.34,2.58,2.53,4.4,2.53h.59v.43Z"/>
    <path class="cls-35" d="M221.83,296.08h-22.46v-.43h.56c1.52,0,2.75-1.22,2.78-2.73v-24.19c-.1-1.45-1.3-2.59-2.77-2.59h-.55v-.43s16.63,0,16.63,0c1.87-.02,4.37-.45,5.18-.79v7.59h-.44v-.52c0-2.61-1.64-4.32-4.24-4.43h-7.3v12.62h5.75c2.13-.04,3.69-1.6,3.68-3.72v-.38h.42s0,10.02,0,10.02h-.42v-.38c0-2.1-1.52-3.65-3.62-3.72h-5.81v12.21h5.7c4.33,0,7.15-2.69,8.49-7h.43l-2,8.85Z"/>
    <path class="cls-33" d="M264.11,272.44h-.44v-.52c0-2.65-1.68-4.36-4.34-4.43h-5.83v25.46c.05,1.5,1.27,2.69,2.78,2.69h.55v.43s-13.18,0-13.18,0v-.43h.56c1.49,0,2.71-1.18,2.78-2.66v-25.49h-5.83c-2.66.07-4.35,1.78-4.34,4.43v.51h-.44s0-7.56,0-7.56c.8.34,3.28.77,5.14.79h17.45c1.87-.02,4.34-.45,5.14-.79v7.56Z"/>
    <path class="cls-27" d="M281.49,265.71c5.26,0,10.32,2.14,10.32,8.18,0,3.65-2.18,7.75-7.1,8.24,1.83.6,3.46,2.32,4.43,3.84.13.21,2.73,4.34,4.37,6.37,1.87,2.38,3.11,3.26,5.37,3.29v.44h-4.22c-4.75,0-8.2-1.03-10.19-4.5-1.05-1.84-3.01-6.13-3.61-7.43-.84-1.81-1.81-2.73-2.94-2.92v-.41h1.32c2.33-.02,4.7-1.21,5.48-5.02.1-.53.2-1.23.16-2.1-.17-4.15-2.27-6.01-5.12-6.08-1.15-.05-2.75,0-3.29-.01v25.31c.03,1.51,1.26,2.73,2.79,2.73h.54v.43s-13.18,0-13.18,0v-.43h.56c1.51,0,2.74-1.21,2.78-2.71v-24.07c-.03-1.51-1.26-2.73-2.77-2.73h-.55v-.43s14.88,0,14.88,0Z"/>
    <path class="cls-31" d="M324.83,293.13c.94,1.78,2.42,2.52,3.7,2.52h.36v.43h-13.82v-.43h.38c1.12,0,2.34-.99,1.68-2.72l-2.14-5.36h-10.18l-2.22,5.36c-.71,1.74.54,2.72,1.66,2.72h.38v.43h-9.3v-.43h.39c1.23,0,2.73-.72,3.65-2.44l10.03-22.68c.31-.66,2.03-4.42,2.13-5.68h.39l12.9,28.29ZM314.26,285.74l-4.24-10.65-4.45,10.65h8.69Z"/>
    <path class="cls-22" d="M342.6,296.08h-13.18v-.43h.56c1.52,0,2.75-1.22,2.78-2.73v-24.07c-.04-1.5-1.27-2.71-2.78-2.71h-.55v-.43s13.17,0,13.17,0v.43h-.56c-1.51,0-2.74,1.2-2.78,2.7v24.08c.03,1.51,1.26,2.73,2.78,2.73h.55v.43Z"/>
    <path class="cls-23" d="M368.63,296.08h-22.46v-.43h.56c1.52,0,2.75-1.22,2.78-2.73v-24.05c-.03-1.51-1.26-2.73-2.78-2.73h-.55v-.43s13.17,0,13.17,0v.43h-.56c-1.52,0-2.75,1.22-2.78,2.73v25.35h5.7c4.33,0,7.15-2.69,8.49-7h.43l-2,8.85Z"/>
    <path class="cls-34" d="M390.24,280.52c2.58,1.68,4.08,3.95,3.89,7.19-.26,5.65-4.52,8.98-11.46,8.98-3.89,0-7.54-1-9.12-2.63-.72-1.81-.11-5.47,1.03-7.36h.38c-.35,4.52,2.98,8.25,8.18,8.17,3.77-.07,6-2.16,6-4.88,0-1.76-1.14-2.93-3.47-4.48l-7.56-5.02c-2.99-1.98-4.47-4.62-4.15-7.79.37-4.49,3.66-7.6,9.13-7.6,1.4,0,3.93.19,5.91.45h2.73l-.57,6.38h-.42c0-3.01-2.45-4.99-6.12-4.99-3.42,0-5.57,1.84-5.68,4.17-.11,1.71,1.21,2.85,3.02,4.03l8.27,5.37Z"/>
  </g>
</svg>